<svg width="601" height="48" viewBox="0 0 601 48" fill="none" xmlns="http://www.w3.org/2000/svg">
<g clip-path="url(#clip0_1_305)">
<path d="M14.719 9.684L11.812 19H10.214L7.97 11.605L5.726 19H4.128L1.204 9.684H2.785L4.927 17.504L7.239 9.684H8.82L11.081 17.521L13.189 9.684H14.719ZM24.7543 13.985C24.7543 14.2797 24.7373 14.5913 24.7033 14.92H17.2573C17.314 15.838 17.6256 16.5577 18.1923 17.079C18.7703 17.589 19.4673 17.844 20.2833 17.844C20.952 17.844 21.5073 17.691 21.9493 17.385C22.4026 17.0677 22.72 16.6483 22.9013 16.127H24.5673C24.318 17.0223 23.8193 17.7533 23.0713 18.32C22.3233 18.8753 21.394 19.153 20.2833 19.153C19.3993 19.153 18.606 18.9547 17.9033 18.558C17.212 18.1613 16.668 17.6003 16.2713 16.875C15.8746 16.1383 15.6763 15.2883 15.6763 14.325C15.6763 13.3617 15.869 12.5173 16.2543 11.792C16.6396 11.0667 17.178 10.5113 17.8693 10.126C18.572 9.72933 19.3766 9.531 20.2833 9.531C21.1673 9.531 21.9493 9.72367 22.6293 10.109C23.3093 10.4943 23.8306 11.027 24.1933 11.707C24.5673 12.3757 24.7543 13.135 24.7543 13.985ZM23.1563 13.662C23.1563 13.0727 23.026 12.5683 22.7653 12.149C22.5046 11.7183 22.1476 11.3953 21.6943 11.18C21.2523 10.9533 20.7593 10.84 20.2153 10.84C19.4333 10.84 18.7646 11.0893 18.2093 11.588C17.6653 12.0867 17.3536 12.778 17.2743 13.662H23.1563ZM28.3433 11.418C28.6606 10.8627 29.1253 10.4093 29.7373 10.058C30.3493 9.70667 31.0463 9.531 31.8283 9.531C32.667 9.531 33.4206 9.72933 34.0893 10.126C34.758 10.5227 35.285 11.0837 35.6703 11.809C36.0556 12.523 36.2483 13.356 36.2483 14.308C36.2483 15.2487 36.0556 16.0873 35.6703 16.824C35.285 17.5607 34.7523 18.133 34.0723 18.541C33.4036 18.949 32.6556 19.153 31.8283 19.153C31.0236 19.153 30.3153 18.9773 29.7033 18.626C29.1026 18.2747 28.6493 17.827 28.3433 17.283V19H26.7963V6.42H28.3433V11.418ZM34.6673 14.308C34.6673 13.6053 34.5256 12.9933 34.2423 12.472C33.959 11.9507 33.5736 11.554 33.0863 11.282C32.6103 11.01 32.0833 10.874 31.5053 10.874C30.9386 10.874 30.4116 11.0157 29.9243 11.299C29.4483 11.571 29.063 11.9733 28.7683 12.506C28.485 13.0273 28.3433 13.6337 28.3433 14.325C28.3433 15.0277 28.485 15.6453 28.7683 16.178C29.063 16.6993 29.4483 17.1017 29.9243 17.385C30.4116 17.657 30.9386 17.793 31.5053 17.793C32.0833 17.793 32.6103 17.657 33.0863 17.385C33.5736 17.1017 33.959 16.6993 34.2423 16.178C34.5256 15.6453 34.6673 15.022 34.6673 14.308ZM42.2388 14.308C42.2388 13.356 42.4315 12.523 42.8168 11.809C43.2021 11.0837 43.7291 10.5227 44.3978 10.126C45.0778 9.72933 45.8371 9.531 46.6758 9.531C47.4011 9.531 48.0755 9.701 48.6988 10.041C49.3221 10.3697 49.7981 10.806 50.1268 11.35V6.42H51.6908V19H50.1268V17.249C49.8208 17.8043 49.3675 18.2633 48.7668 18.626C48.1661 18.9773 47.4635 19.153 46.6588 19.153C45.8315 19.153 45.0778 18.949 44.3978 18.541C43.7291 18.133 43.2021 17.5607 42.8168 16.824C42.4315 16.0873 42.2388 15.2487 42.2388 14.308ZM50.1268 14.325C50.1268 13.6223 49.9851 13.0103 49.7018 12.489C49.4185 11.9677 49.0331 11.571 48.5458 11.299C48.0698 11.0157 47.5428 10.874 46.9648 10.874C46.3868 10.874 45.8598 11.01 45.3838 11.282C44.9078 11.554 44.5281 11.9507 44.2448 12.472C43.9615 12.9933 43.8198 13.6053 43.8198 14.308C43.8198 15.022 43.9615 15.6453 44.2448 16.178C44.5281 16.6993 44.9078 17.1017 45.3838 17.385C45.8598 17.657 46.3868 17.793 46.9648 17.793C47.5428 17.793 48.0698 17.657 48.5458 17.385C49.0331 17.1017 49.4185 16.6993 49.7018 16.178C49.9851 15.6453 50.1268 15.0277 50.1268 14.325ZM62.8051 13.985C62.8051 14.2797 62.7881 14.5913 62.7541 14.92H55.3081C55.3648 15.838 55.6764 16.5577 56.2431 17.079C56.8211 17.589 57.5181 17.844 58.3341 17.844C59.0028 17.844 59.5581 17.691 60.0001 17.385C60.4534 17.0677 60.7708 16.6483 60.9521 16.127H62.6181C62.3688 17.0223 61.8701 17.7533 61.1221 18.32C60.3741 18.8753 59.4448 19.153 58.3341 19.153C57.4501 19.153 56.6568 18.9547 55.9541 18.558C55.2628 18.1613 54.7188 17.6003 54.3221 16.875C53.9254 16.1383 53.7271 15.2883 53.7271 14.325C53.7271 13.3617 53.9198 12.5173 54.3051 11.792C54.6904 11.0667 55.2288 10.5113 55.9201 10.126C56.6228 9.72933 57.4274 9.531 58.3341 9.531C59.2181 9.531 60.0001 9.72367 60.6801 10.109C61.3601 10.4943 61.8814 11.027 62.2441 11.707C62.6181 12.3757 62.8051 13.135 62.8051 13.985ZM61.2071 13.662C61.2071 13.0727 61.0768 12.5683 60.8161 12.149C60.5554 11.7183 60.1984 11.3953 59.7451 11.18C59.3031 10.9533 58.8101 10.84 58.2661 10.84C57.4841 10.84 56.8154 11.0893 56.2601 11.588C55.7161 12.0867 55.4044 12.778 55.3251 13.662H61.2071ZM68.1451 19.153C67.4311 19.153 66.7908 19.034 66.2241 18.796C65.6574 18.5467 65.2098 18.2067 64.8811 17.776C64.5524 17.334 64.3711 16.8297 64.3371 16.263H65.9351C65.9804 16.7277 66.1958 17.1073 66.5811 17.402C66.9778 17.6967 67.4934 17.844 68.1281 17.844C68.7174 17.844 69.1821 17.7137 69.5221 17.453C69.8621 17.1923 70.0321 16.8637 70.0321 16.467C70.0321 16.059 69.8508 15.7587 69.4881 15.566C69.1254 15.362 68.5644 15.1637 67.8051 14.971C67.1138 14.7897 66.5471 14.6083 66.1051 14.427C65.6744 14.2343 65.3004 13.9567 64.9831 13.594C64.6771 13.22 64.5241 12.7327 64.5241 12.132C64.5241 11.656 64.6658 11.2197 64.9491 10.823C65.2324 10.4263 65.6348 10.1147 66.1561 9.888C66.6774 9.65 67.2724 9.531 67.9411 9.531C68.9724 9.531 69.8054 9.79167 70.4401 10.313C71.0748 10.8343 71.4148 11.5483 71.4601 12.455H69.9131C69.8791 11.9677 69.6808 11.5767 69.3181 11.282C68.9668 10.9873 68.4908 10.84 67.8901 10.84C67.3348 10.84 66.8928 10.959 66.5641 11.197C66.2354 11.435 66.0711 11.7467 66.0711 12.132C66.0711 12.438 66.1674 12.693 66.3601 12.897C66.5641 13.0897 66.8134 13.2483 67.1081 13.373C67.4141 13.4863 67.8334 13.6167 68.3661 13.764C69.0348 13.9453 69.5788 14.1267 69.9981 14.308C70.4174 14.478 70.7744 14.7387 71.0691 15.09C71.3751 15.4413 71.5338 15.9003 71.5451 16.467C71.5451 16.977 71.4034 17.436 71.1201 17.844C70.8368 18.252 70.4344 18.575 69.9131 18.813C69.4031 19.0397 68.8138 19.153 68.1451 19.153ZM74.5279 8.171C74.2333 8.171 73.9839 8.069 73.7799 7.865C73.5759 7.661 73.4739 7.41167 73.4739 7.117C73.4739 6.82233 73.5759 6.573 73.7799 6.369C73.9839 6.165 74.2333 6.063 74.5279 6.063C74.8113 6.063 75.0493 6.165 75.2419 6.369C75.4459 6.573 75.5479 6.82233 75.5479 7.117C75.5479 7.41167 75.4459 7.661 75.2419 7.865C75.0493 8.069 74.8113 8.171 74.5279 8.171ZM75.2759 9.684V19H73.7289V9.684H75.2759ZM81.7545 9.531C82.5592 9.531 83.2618 9.70667 83.8625 10.058C84.4745 10.4093 84.9278 10.8513 85.2225 11.384V9.684H86.7865V19.204C86.7865 20.054 86.6052 20.8077 86.2425 21.465C85.8798 22.1337 85.3585 22.655 84.6785 23.029C84.0098 23.403 83.2278 23.59 82.3325 23.59C81.1085 23.59 80.0885 23.301 79.2725 22.723C78.4565 22.145 77.9748 21.3573 77.8275 20.36H79.3575C79.5275 20.9267 79.8788 21.38 80.4115 21.72C80.9442 22.0713 81.5845 22.247 82.3325 22.247C83.1825 22.247 83.8738 21.9807 84.4065 21.448C84.9505 20.9153 85.2225 20.1673 85.2225 19.204V17.249C84.9165 17.793 84.4632 18.2463 83.8625 18.609C83.2618 18.9717 82.5592 19.153 81.7545 19.153C80.9272 19.153 80.1735 18.949 79.4935 18.541C78.8248 18.133 78.2978 17.5607 77.9125 16.824C77.5272 16.0873 77.3345 15.2487 77.3345 14.308C77.3345 13.356 77.5272 12.523 77.9125 11.809C78.2978 11.0837 78.8248 10.5227 79.4935 10.126C80.1735 9.72933 80.9272 9.531 81.7545 9.531ZM85.2225 14.325C85.2225 13.6223 85.0808 13.0103 84.7975 12.489C84.5142 11.9677 84.1288 11.571 83.6415 11.299C83.1655 11.0157 82.6385 10.874 82.0605 10.874C81.4825 10.874 80.9555 11.01 80.4795 11.282C80.0035 11.554 79.6238 11.9507 79.3405 12.472C79.0572 12.9933 78.9155 13.6053 78.9155 14.308C78.9155 15.022 79.0572 15.6453 79.3405 16.178C79.6238 16.6993 80.0035 17.1017 80.4795 17.385C80.9555 17.657 81.4825 17.793 82.0605 17.793C82.6385 17.793 83.1655 17.657 83.6415 17.385C84.1288 17.1017 84.5142 16.6993 84.7975 16.178C85.0808 15.6453 85.2225 15.0277 85.2225 14.325ZM93.9398 9.514C95.0731 9.514 95.9911 9.85967 96.6938 10.551C97.3965 11.231 97.7478 12.217 97.7478 13.509V19H96.2178V13.73C96.2178 12.8007 95.9855 12.0923 95.5208 11.605C95.0561 11.1063 94.4215 10.857 93.6168 10.857C92.8008 10.857 92.1491 11.112 91.6618 11.622C91.1858 12.132 90.9478 12.8743 90.9478 13.849V19H89.4008V9.684H90.9478V11.01C91.2538 10.534 91.6675 10.1657 92.1888 9.905C92.7215 9.64433 93.3051 9.514 93.9398 9.514Z" fill="#222222"/>
<path d="M454.91 17.36C454.35 17.14 453.92 16.82 453.62 16.4C453.32 15.98 453.17 15.47 453.17 14.87C453.17 14.33 453.305 13.845 453.575 13.415C453.845 12.975 454.245 12.63 454.775 12.38C455.315 12.12 455.965 11.99 456.725 11.99C457.485 11.99 458.13 12.12 458.66 12.38C459.2 12.63 459.605 12.975 459.875 13.415C460.155 13.845 460.295 14.33 460.295 14.87C460.295 15.45 460.14 15.96 459.83 16.4C459.52 16.83 459.095 17.15 458.555 17.36C459.175 17.55 459.665 17.885 460.025 18.365C460.395 18.835 460.58 19.405 460.58 20.075C460.58 20.725 460.42 21.295 460.1 21.785C459.78 22.265 459.325 22.64 458.735 22.91C458.155 23.17 457.485 23.3 456.725 23.3C455.965 23.3 455.295 23.17 454.715 22.91C454.145 22.64 453.7 22.265 453.38 21.785C453.06 21.295 452.9 20.725 452.9 20.075C452.9 19.405 453.08 18.83 453.44 18.35C453.8 17.87 454.29 17.54 454.91 17.36ZM458.975 15.035C458.975 14.425 458.775 13.955 458.375 13.625C457.975 13.295 457.425 13.13 456.725 13.13C456.035 13.13 455.49 13.295 455.09 13.625C454.69 13.955 454.49 14.43 454.49 15.05C454.49 15.61 454.695 16.06 455.105 16.4C455.525 16.74 456.065 16.91 456.725 16.91C457.395 16.91 457.935 16.74 458.345 16.4C458.765 16.05 458.975 15.595 458.975 15.035ZM456.725 17.96C455.985 17.96 455.38 18.135 454.91 18.485C454.44 18.825 454.205 19.34 454.205 20.03C454.205 20.67 454.43 21.185 454.88 21.575C455.34 21.965 455.955 22.16 456.725 22.16C457.495 22.16 458.105 21.965 458.555 21.575C459.005 21.185 459.23 20.67 459.23 20.03C459.23 19.36 459 18.85 458.54 18.5C458.08 18.14 457.475 17.96 456.725 17.96ZM462.393 17.465C462.393 15.745 462.673 14.405 463.233 13.445C463.793 12.475 464.773 11.99 466.173 11.99C467.563 11.99 468.538 12.475 469.098 13.445C469.658 14.405 469.938 15.745 469.938 17.465C469.938 19.215 469.658 20.575 469.098 21.545C468.538 22.515 467.563 23 466.173 23C464.773 23 463.793 22.515 463.233 21.545C462.673 20.575 462.393 19.215 462.393 17.465ZM468.588 17.465C468.588 16.595 468.528 15.86 468.408 15.26C468.298 14.65 468.063 14.16 467.703 13.79C467.353 13.42 466.843 13.235 466.173 13.235C465.493 13.235 464.973 13.42 464.613 13.79C464.263 14.16 464.028 14.65 463.908 15.26C463.798 15.86 463.743 16.595 463.743 17.465C463.743 18.365 463.798 19.12 463.908 19.73C464.028 20.34 464.263 20.83 464.613 21.2C464.973 21.57 465.493 21.755 466.173 21.755C466.843 21.755 467.353 21.57 467.703 21.2C468.063 20.83 468.298 20.34 468.408 19.73C468.528 19.12 468.588 18.365 468.588 17.465ZM471.512 14.6C471.512 13.92 471.717 13.38 472.127 12.98C472.537 12.57 473.062 12.365 473.702 12.365C474.342 12.365 474.867 12.57 475.277 12.98C475.687 13.38 475.892 13.92 475.892 14.6C475.892 15.29 475.687 15.84 475.277 16.25C474.867 16.65 474.342 16.85 473.702 16.85C473.062 16.85 472.537 16.65 472.127 16.25C471.717 15.84 471.512 15.29 471.512 14.6ZM480.272 12.53L474.197 23H472.847L478.922 12.53H480.272ZM473.702 13.205C473.362 13.205 473.092 13.325 472.892 13.565C472.702 13.795 472.607 14.14 472.607 14.6C472.607 15.06 472.702 15.41 472.892 15.65C473.092 15.89 473.362 16.01 473.702 16.01C474.042 16.01 474.312 15.89 474.512 15.65C474.712 15.4 474.812 15.05 474.812 14.6C474.812 14.14 474.712 13.795 474.512 13.565C474.312 13.325 474.042 13.205 473.702 13.205ZM477.257 20.93C477.257 20.24 477.462 19.695 477.872 19.295C478.282 18.885 478.807 18.68 479.447 18.68C480.087 18.68 480.607 18.885 481.007 19.295C481.417 19.695 481.622 20.24 481.622 20.93C481.622 21.61 481.417 22.155 481.007 22.565C480.607 22.975 480.087 23.18 479.447 23.18C478.807 23.18 478.282 22.98 477.872 22.58C477.462 22.17 477.257 21.62 477.257 20.93ZM479.432 19.535C479.092 19.535 478.822 19.655 478.622 19.895C478.422 20.125 478.322 20.47 478.322 20.93C478.322 21.38 478.422 21.725 478.622 21.965C478.822 22.195 479.092 22.31 479.432 22.31C479.772 22.31 480.042 22.195 480.242 21.965C480.442 21.725 480.542 21.38 480.542 20.93C480.542 20.47 480.442 20.125 480.242 19.895C480.042 19.655 479.772 19.535 479.432 19.535Z" fill="#999999"/>
<path d="M1 38H601V48H1V38Z" fill="#EEEEEE"/>
<path d="M1 38H481V48H1V38Z" fill="url(#paint0_linear_1_305)"/>
</g>
<defs>
<linearGradient id="paint0_linear_1_305" x1="1" y1="48.0003" x2="481" y2="48.0003" gradientUnits="userSpaceOnUse">
<stop stop-color="#FF4B05"/>
<stop offset="0.725882" stop-color="#FFAE35"/>
</linearGradient>
<clipPath id="clip0_1_305">
<rect width="600.125" height="48" fill="white" transform="translate(0.875)"/>
</clipPath>
</defs>
</svg>
