<svg width="601" height="48" viewBox="0 0 601 48" fill="none" xmlns="http://www.w3.org/2000/svg">
<g clip-path="url(#clip0_1_297)">
<path d="M3.232 7.534C2.92 7.534 2.656 7.426 2.44 7.21C2.224 6.994 2.116 6.73 2.116 6.418C2.116 6.106 2.224 5.842 2.44 5.626C2.656 5.41 2.92 5.302 3.232 5.302C3.532 5.302 3.784 5.41 3.988 5.626C4.204 5.842 4.312 6.106 4.312 6.418C4.312 6.73 4.204 6.994 3.988 7.21C3.784 7.426 3.532 7.534 3.232 7.534ZM4.024 9.136V19H2.386V9.136H4.024ZM8.45369 5.68V19H6.81569V5.68H8.45369ZM12.8834 5.68V19H11.2454V5.68H12.8834ZM24.4231 9.136V19H22.7851V17.542C22.4731 18.046 22.0351 18.442 21.4711 18.73C20.9191 19.006 20.3071 19.144 19.6351 19.144C18.8671 19.144 18.1771 18.988 17.5651 18.676C16.9531 18.352 16.4671 17.872 16.1071 17.236C15.7591 16.6 15.5851 15.826 15.5851 14.914V9.136H17.2051V14.698C17.2051 15.67 17.4511 16.42 17.9431 16.948C18.4351 17.464 19.1071 17.722 19.9591 17.722C20.8351 17.722 21.5251 17.452 22.0291 16.912C22.5331 16.372 22.7851 15.586 22.7851 14.554V9.136H24.4231ZM30.6807 19.162C29.9247 19.162 29.2467 19.036 28.6467 18.784C28.0467 18.52 27.5727 18.16 27.2247 17.704C26.8767 17.236 26.6847 16.702 26.6487 16.102H28.3407C28.3887 16.594 28.6167 16.996 29.0247 17.308C29.4447 17.62 29.9907 17.776 30.6627 17.776C31.2867 17.776 31.7787 17.638 32.1387 17.362C32.4987 17.086 32.6787 16.738 32.6787 16.318C32.6787 15.886 32.4867 15.568 32.1027 15.364C31.7187 15.148 31.1247 14.938 30.3207 14.734C29.5887 14.542 28.9887 14.35 28.5207 14.158C28.0647 13.954 27.6687 13.66 27.3327 13.276C27.0087 12.88 26.8467 12.364 26.8467 11.728C26.8467 11.224 26.9967 10.762 27.2967 10.342C27.5967 9.922 28.0227 9.592 28.5747 9.352C29.1267 9.1 29.7567 8.974 30.4647 8.974C31.5567 8.974 32.4387 9.25 33.1107 9.802C33.7827 10.354 34.1427 11.11 34.1907 12.07H32.5527C32.5167 11.554 32.3067 11.14 31.9227 10.828C31.5507 10.516 31.0467 10.36 30.4107 10.36C29.8227 10.36 29.3547 10.486 29.0067 10.738C28.6587 10.99 28.4847 11.32 28.4847 11.728C28.4847 12.052 28.5867 12.322 28.7907 12.538C29.0067 12.742 29.2707 12.91 29.5827 13.042C29.9067 13.162 30.3507 13.3 30.9147 13.456C31.6227 13.648 32.1987 13.84 32.6427 14.032C33.0867 14.212 33.4647 14.488 33.7767 14.86C34.1007 15.232 34.2687 15.718 34.2807 16.318C34.2807 16.858 34.1307 17.344 33.8307 17.776C33.5307 18.208 33.1047 18.55 32.5527 18.802C32.0127 19.042 31.3887 19.162 30.6807 19.162ZM38.591 10.486V16.3C38.591 16.78 38.693 17.122 38.897 17.326C39.101 17.518 39.455 17.614 39.959 17.614H41.165V19H39.689C38.777 19 38.093 18.79 37.637 18.37C37.181 17.95 36.953 17.26 36.953 16.3V10.486H35.675V9.136H36.953V6.652H38.591V9.136H41.165V10.486H38.591ZM44.7877 10.738C45.0757 10.174 45.4837 9.736 46.0117 9.424C46.5517 9.112 47.2057 8.956 47.9737 8.956V10.648H47.5417C45.7057 10.648 44.7877 11.644 44.7877 13.636V19H43.1497V9.136H44.7877V10.738ZM49.2525 14.032C49.2525 13.024 49.4565 12.142 49.8645 11.386C50.2725 10.618 50.8305 10.024 51.5385 9.604C52.2585 9.184 53.0565 8.974 53.9325 8.974C54.7965 8.974 55.5465 9.16 56.1825 9.532C56.8185 9.904 57.2925 10.372 57.6045 10.936V9.136H59.2605V19H57.6045V17.164C57.2805 17.74 56.7945 18.22 56.1465 18.604C55.5105 18.976 54.7665 19.162 53.9145 19.162C53.0385 19.162 52.2465 18.946 51.5385 18.514C50.8305 18.082 50.2725 17.476 49.8645 16.696C49.4565 15.916 49.2525 15.028 49.2525 14.032ZM57.6045 14.05C57.6045 13.306 57.4545 12.658 57.1545 12.106C56.8545 11.554 56.4465 11.134 55.9305 10.846C55.4265 10.546 54.8685 10.396 54.2565 10.396C53.6445 10.396 53.0865 10.54 52.5825 10.828C52.0785 11.116 51.6765 11.536 51.3765 12.088C51.0765 12.64 50.9265 13.288 50.9265 14.032C50.9265 14.788 51.0765 15.448 51.3765 16.012C51.6765 16.564 52.0785 16.99 52.5825 17.29C53.0865 17.578 53.6445 17.722 54.2565 17.722C54.8685 17.722 55.4265 17.578 55.9305 17.29C56.4465 16.99 56.8545 16.564 57.1545 16.012C57.4545 15.448 57.6045 14.794 57.6045 14.05ZM64.0266 10.486V16.3C64.0266 16.78 64.1286 17.122 64.3326 17.326C64.5366 17.518 64.8906 17.614 65.3946 17.614H66.6006V19H65.1246C64.2126 19 63.5286 18.79 63.0726 18.37C62.6166 17.95 62.3886 17.26 62.3886 16.3V10.486H61.1106V9.136H62.3886V6.652H64.0266V9.136H66.6006V10.486H64.0266ZM69.4312 7.534C69.1192 7.534 68.8552 7.426 68.6392 7.21C68.4232 6.994 68.3152 6.73 68.3152 6.418C68.3152 6.106 68.4232 5.842 68.6392 5.626C68.8552 5.41 69.1192 5.302 69.4312 5.302C69.7312 5.302 69.9832 5.41 70.1872 5.626C70.4032 5.842 70.5112 6.106 70.5112 6.418C70.5112 6.73 70.4032 6.994 70.1872 7.21C69.9832 7.426 69.7312 7.534 69.4312 7.534ZM70.2232 9.136V19H68.5852V9.136H70.2232ZM77.3169 19.162C76.3929 19.162 75.5529 18.952 74.7969 18.532C74.0529 18.112 73.4649 17.518 73.0329 16.75C72.6129 15.97 72.4029 15.07 72.4029 14.05C72.4029 13.042 72.6189 12.154 73.0509 11.386C73.4949 10.606 74.0949 10.012 74.8509 9.604C75.6069 9.184 76.4529 8.974 77.3889 8.974C78.3249 8.974 79.1709 9.184 79.9269 9.604C80.6829 10.012 81.2769 10.6 81.7089 11.368C82.1529 12.136 82.3749 13.03 82.3749 14.05C82.3749 15.07 82.1469 15.97 81.6909 16.75C81.2469 17.518 80.6409 18.112 79.8729 18.532C79.1049 18.952 78.2529 19.162 77.3169 19.162ZM77.3169 17.722C77.9049 17.722 78.4569 17.584 78.9729 17.308C79.4889 17.032 79.9029 16.618 80.2149 16.066C80.5389 15.514 80.7009 14.842 80.7009 14.05C80.7009 13.258 80.5449 12.586 80.2329 12.034C79.9209 11.482 79.5129 11.074 79.0089 10.81C78.5049 10.534 77.9589 10.396 77.3709 10.396C76.7709 10.396 76.2189 10.534 75.7149 10.81C75.2229 11.074 74.8269 11.482 74.5269 12.034C74.2269 12.586 74.0769 13.258 74.0769 14.05C74.0769 14.854 74.2209 15.532 74.5089 16.084C74.8089 16.636 75.2049 17.05 75.6969 17.326C76.1889 17.59 76.7289 17.722 77.3169 17.722ZM89.3346 8.956C90.5346 8.956 91.5066 9.322 92.2506 10.054C92.9946 10.774 93.3666 11.818 93.3666 13.186V19H91.7466V13.42C91.7466 12.436 91.5006 11.686 91.0086 11.17C90.5166 10.642 89.8446 10.378 88.9926 10.378C88.1286 10.378 87.4386 10.648 86.9226 11.188C86.4186 11.728 86.1666 12.514 86.1666 13.546V19H84.5286V9.136H86.1666V10.54C86.4906 10.036 86.9286 9.646 87.4806 9.37C88.0446 9.094 88.6626 8.956 89.3346 8.956Z" fill="#222222"/>
<path d="M502.685 20.09C502.785 20.66 503.015 21.1 503.375 21.41C503.745 21.72 504.24 21.875 504.86 21.875C505.69 21.875 506.3 21.55 506.69 20.9C507.09 20.25 507.28 19.155 507.26 17.615C507.05 18.065 506.7 18.42 506.21 18.68C505.72 18.93 505.175 19.055 504.575 19.055C503.905 19.055 503.305 18.92 502.775 18.65C502.255 18.37 501.845 17.965 501.545 17.435C501.245 16.905 501.095 16.265 501.095 15.515C501.095 14.445 501.405 13.585 502.025 12.935C502.645 12.275 503.525 11.945 504.665 11.945C506.065 11.945 507.045 12.4 507.605 13.31C508.175 14.22 508.46 15.575 508.46 17.375C508.46 18.635 508.345 19.675 508.115 20.495C507.895 21.315 507.515 21.94 506.975 22.37C506.445 22.8 505.715 23.015 504.785 23.015C503.765 23.015 502.97 22.74 502.4 22.19C501.83 21.64 501.505 20.94 501.425 20.09H502.685ZM504.8 17.9C505.47 17.9 506.02 17.695 506.45 17.285C506.88 16.865 507.095 16.3 507.095 15.59C507.095 14.84 506.885 14.235 506.465 13.775C506.045 13.315 505.455 13.085 504.695 13.085C503.995 13.085 503.435 13.305 503.015 13.745C502.605 14.185 502.4 14.765 502.4 15.485C502.4 16.215 502.605 16.8 503.015 17.24C503.425 17.68 504.02 17.9 504.8 17.9ZM510.378 17.465C510.378 15.745 510.658 14.405 511.218 13.445C511.778 12.475 512.758 11.99 514.158 11.99C515.548 11.99 516.523 12.475 517.083 13.445C517.643 14.405 517.923 15.745 517.923 17.465C517.923 19.215 517.643 20.575 517.083 21.545C516.523 22.515 515.548 23 514.158 23C512.758 23 511.778 22.515 511.218 21.545C510.658 20.575 510.378 19.215 510.378 17.465ZM516.573 17.465C516.573 16.595 516.513 15.86 516.393 15.26C516.283 14.65 516.048 14.16 515.688 13.79C515.338 13.42 514.828 13.235 514.158 13.235C513.478 13.235 512.958 13.42 512.598 13.79C512.248 14.16 512.013 14.65 511.893 15.26C511.783 15.86 511.728 16.595 511.728 17.465C511.728 18.365 511.783 19.12 511.893 19.73C512.013 20.34 512.248 20.83 512.598 21.2C512.958 21.57 513.478 21.755 514.158 21.755C514.828 21.755 515.338 21.57 515.688 21.2C516.048 20.83 516.283 20.34 516.393 19.73C516.513 19.12 516.573 18.365 516.573 17.465ZM519.497 14.6C519.497 13.92 519.702 13.38 520.112 12.98C520.522 12.57 521.047 12.365 521.687 12.365C522.327 12.365 522.852 12.57 523.262 12.98C523.672 13.38 523.877 13.92 523.877 14.6C523.877 15.29 523.672 15.84 523.262 16.25C522.852 16.65 522.327 16.85 521.687 16.85C521.047 16.85 520.522 16.65 520.112 16.25C519.702 15.84 519.497 15.29 519.497 14.6ZM528.257 12.53L522.182 23H520.832L526.907 12.53H528.257ZM521.687 13.205C521.347 13.205 521.077 13.325 520.877 13.565C520.687 13.795 520.592 14.14 520.592 14.6C520.592 15.06 520.687 15.41 520.877 15.65C521.077 15.89 521.347 16.01 521.687 16.01C522.027 16.01 522.297 15.89 522.497 15.65C522.697 15.4 522.797 15.05 522.797 14.6C522.797 14.14 522.697 13.795 522.497 13.565C522.297 13.325 522.027 13.205 521.687 13.205ZM525.242 20.93C525.242 20.24 525.447 19.695 525.857 19.295C526.267 18.885 526.792 18.68 527.432 18.68C528.072 18.68 528.592 18.885 528.992 19.295C529.402 19.695 529.607 20.24 529.607 20.93C529.607 21.61 529.402 22.155 528.992 22.565C528.592 22.975 528.072 23.18 527.432 23.18C526.792 23.18 526.267 22.98 525.857 22.58C525.447 22.17 525.242 21.62 525.242 20.93ZM527.417 19.535C527.077 19.535 526.807 19.655 526.607 19.895C526.407 20.125 526.307 20.47 526.307 20.93C526.307 21.38 526.407 21.725 526.607 21.965C526.807 22.195 527.077 22.31 527.417 22.31C527.757 22.31 528.027 22.195 528.227 21.965C528.427 21.725 528.527 21.38 528.527 20.93C528.527 20.47 528.427 20.125 528.227 19.895C528.027 19.655 527.757 19.535 527.417 19.535Z" fill="#999999"/>
<path d="M1 38H601V48H1V38Z" fill="#EEEEEE"/>
<path d="M1 38H541V48H1V38Z" fill="url(#paint0_linear_1_297)"/>
</g>
<defs>
<linearGradient id="paint0_linear_1_297" x1="1" y1="48" x2="541" y2="48" gradientUnits="userSpaceOnUse">
<stop stop-color="#FF4803"/>
<stop offset="0.597428" stop-color="#FFAE35"/>
</linearGradient>
<clipPath id="clip0_1_297">
<rect width="600.125" height="48" fill="white" transform="translate(0.875)"/>
</clipPath>
</defs>
</svg>
