<svg width="720" height="720" viewBox="0 0 720 720" fill="none" xmlns="http://www.w3.org/2000/svg">
<path d="M137.918 334.625V275.999H160.336C164.61 275.999 168.077 276.644 170.899 277.935C173.722 279.306 175.818 281.08 177.27 283.418C178.641 285.676 179.367 288.257 179.367 291.16C179.367 293.579 178.883 295.595 177.996 297.288C177.109 298.982 175.818 300.353 174.286 301.401C172.754 302.449 170.98 303.175 169.125 303.659V304.223C171.222 304.385 173.157 305.03 175.093 306.159C177.028 307.288 178.56 308.9 179.85 310.997C181.06 313.094 181.625 315.674 181.625 318.658C181.625 321.642 180.899 324.383 179.447 326.802C177.996 329.222 175.738 331.157 172.835 332.528C169.851 333.899 166.142 334.625 161.626 334.625H137.918ZM148.482 325.754H159.932C163.803 325.754 166.545 325.028 168.319 323.496C170.012 322.045 170.819 320.109 170.819 317.851C170.819 316.077 170.416 314.545 169.529 313.094C168.722 311.723 167.513 310.594 165.9 309.787C164.287 308.981 162.432 308.578 160.255 308.578H148.482V325.754ZM148.482 300.917H159.045C160.9 300.917 162.513 300.594 163.964 299.869C165.416 299.224 166.625 298.256 167.432 297.046C168.319 295.756 168.722 294.305 168.722 292.53C168.722 290.273 167.916 288.418 166.384 286.966C164.771 285.515 162.352 284.708 159.287 284.708H148.482V300.917Z" fill="#C2C2C2"/>
<path d="M202.556 335.511C199.734 335.511 197.234 335.028 195.057 333.979C192.799 333.012 191.025 331.56 189.734 329.544C188.444 327.609 187.799 325.19 187.799 322.287C187.799 319.787 188.283 317.771 189.25 316.158C190.138 314.464 191.347 313.174 192.96 312.207C194.573 311.239 196.347 310.513 198.363 310.029C200.298 309.545 202.395 309.142 204.572 308.9C207.072 308.658 209.169 308.416 210.781 308.175C212.394 307.933 213.604 307.61 214.33 307.126C215.055 306.642 215.378 305.917 215.378 304.949V304.788C215.378 302.61 214.813 300.998 213.523 299.788C212.233 298.578 210.378 298.014 207.959 298.014C205.459 298.014 203.443 298.578 201.911 299.627C200.459 300.756 199.492 302.046 198.927 303.578L189.25 302.207C190.057 299.546 191.266 297.288 193.041 295.514C194.815 293.659 196.992 292.369 199.492 291.401C202.072 290.514 204.814 290.031 207.878 290.031C210.056 290.031 212.152 290.353 214.249 290.837C216.346 291.321 218.281 292.127 219.974 293.256C221.748 294.385 223.119 295.917 224.168 297.853C225.216 299.869 225.78 302.288 225.78 305.191V334.624H215.781V328.576H215.458C214.813 329.786 213.926 330.915 212.797 332.044C211.668 333.092 210.298 333.899 208.523 334.544C206.83 335.189 204.814 335.511 202.556 335.511ZM205.217 327.931C207.314 327.931 209.169 327.447 210.701 326.641C212.152 325.835 213.362 324.706 214.168 323.335C215.055 321.964 215.458 320.432 215.458 318.819V313.658C215.136 313.9 214.571 314.142 213.765 314.384C213.039 314.626 212.152 314.868 211.185 315.029C210.217 315.19 209.33 315.351 208.362 315.432C207.394 315.593 206.588 315.755 205.943 315.835C204.411 315.997 203.04 316.4 201.75 316.803C200.54 317.287 199.572 318.013 198.927 318.819C198.202 319.706 197.798 320.754 197.798 322.125C197.798 323.98 198.524 325.431 199.895 326.399C201.346 327.447 203.121 327.931 205.217 327.931Z" fill="#C2C2C2"/>
<path d="M254.562 335.511C250.208 335.511 246.418 334.544 243.273 332.608C240.128 330.673 237.709 328.012 236.015 324.625C234.322 321.158 233.515 317.287 233.515 312.771C233.515 308.336 234.322 304.384 236.096 300.998C237.789 297.53 240.208 294.869 243.353 292.934C246.498 290.998 250.208 290.031 254.482 290.031C258.111 290.031 261.256 290.756 263.997 292.047C266.739 293.337 268.916 295.191 270.61 297.53C272.223 299.949 273.19 302.691 273.432 305.836H263.513C263.11 303.739 262.143 301.965 260.61 300.594C259.159 299.143 257.143 298.417 254.643 298.417C252.546 298.417 250.692 298.982 249.079 300.111C247.466 301.239 246.176 302.933 245.289 305.03C244.402 307.126 243.999 309.707 243.999 312.61C243.999 315.593 244.402 318.174 245.289 320.351C246.176 322.528 247.385 324.141 248.998 325.27C250.611 326.48 252.466 327.044 254.643 327.044C256.175 327.044 257.546 326.722 258.756 326.157C259.965 325.593 261.014 324.706 261.82 323.657C262.626 322.528 263.191 321.158 263.513 319.625H273.432C273.19 322.69 272.223 325.431 270.69 327.851C269.078 330.27 266.9 332.125 264.159 333.495C261.417 334.786 258.272 335.511 254.562 335.511Z" fill="#C2C2C2"/>
<path d="M289.821 320.835V308.336H291.434L307.32 290.676H319.416L299.982 312.287H297.805L289.821 320.835ZM280.386 334.625V275.999H290.789V334.625H280.386ZM307.965 334.625L293.692 314.626L300.627 307.288L320.384 334.625H307.965Z" fill="#C2C2C2"/>
<path d="M341.536 351.881C337.827 351.881 334.601 351.398 331.94 350.349C329.279 349.382 327.182 348.091 325.489 346.398C323.876 344.704 322.747 342.93 322.183 340.914L331.456 338.656C331.86 339.463 332.505 340.269 333.311 341.076C334.117 341.882 335.166 342.608 336.537 343.172C337.908 343.737 339.682 343.979 341.698 343.979C344.681 343.979 347.1 343.334 349.036 341.882C350.971 340.511 351.939 338.173 351.939 335.028V326.722H351.374C350.891 327.77 350.084 328.899 349.036 330.028C348.068 331.157 346.697 332.125 345.004 332.85C343.391 333.576 341.294 333.979 338.714 333.979C335.408 333.979 332.343 333.173 329.602 331.641C326.86 330.028 324.683 327.609 323.07 324.464C321.457 321.238 320.651 317.287 320.651 312.448C320.651 307.691 321.457 303.578 323.07 300.272C324.683 296.885 326.86 294.385 329.602 292.692C332.343 290.918 335.408 290.031 338.795 290.031C341.375 290.031 343.472 290.514 345.165 291.401C346.859 292.208 348.149 293.256 349.116 294.466C350.165 295.675 350.891 296.804 351.374 297.933H352.02V290.676H362.18V335.35C362.18 339.06 361.293 342.124 359.519 344.543C357.745 346.962 355.245 348.817 352.181 350.027C349.036 351.236 345.488 351.881 341.536 351.881ZM341.617 325.835C343.875 325.835 345.73 325.351 347.262 324.222C348.794 323.174 350.004 321.641 350.81 319.625C351.616 317.609 352.02 315.271 352.02 312.448C352.02 309.626 351.616 307.207 350.81 305.191C350.004 303.094 348.875 301.481 347.262 300.272C345.73 299.143 343.875 298.578 341.617 298.578C339.359 298.578 337.424 299.143 335.892 300.352C334.279 301.562 333.15 303.255 332.343 305.352C331.618 307.368 331.214 309.787 331.214 312.448C331.214 315.11 331.618 317.448 332.343 319.464C333.15 321.48 334.359 323.093 335.892 324.222C337.424 325.27 339.359 325.835 341.617 325.835Z" fill="#C2C2C2"/>
<path d="M371.565 334.624V290.676H381.645V297.933H382.048C382.854 295.433 384.225 293.498 386.241 292.047C388.176 290.676 390.434 290.031 392.934 290.031C393.499 290.031 394.144 290.031 394.869 290.111C395.595 290.111 396.16 290.192 396.644 290.272V299.869C396.24 299.707 395.515 299.546 394.547 299.385C393.66 299.304 392.692 299.223 391.805 299.223C389.95 299.223 388.257 299.627 386.725 300.433C385.273 301.239 384.064 302.368 383.257 303.82C382.37 305.271 381.967 306.884 381.967 308.739V334.624H371.565Z" fill="#C2C2C2"/>
<path d="M419.393 335.511C415.119 335.511 411.41 334.544 408.184 332.608C405.039 330.754 402.62 328.093 400.927 324.706C399.153 321.319 398.346 317.367 398.346 312.771C398.346 308.255 399.153 304.304 400.927 300.836C402.62 297.449 405.039 294.788 408.184 292.934C411.41 290.998 415.119 290.031 419.393 290.031C423.667 290.031 427.377 290.998 430.522 292.934C433.747 294.788 436.166 297.449 437.86 300.836C439.634 304.304 440.44 308.255 440.44 312.771C440.44 317.367 439.634 321.319 437.86 324.706C436.166 328.093 433.747 330.754 430.522 332.608C427.377 334.544 423.667 335.511 419.393 335.511ZM419.474 327.206C421.812 327.206 423.748 326.56 425.28 325.27C426.893 323.98 428.022 322.206 428.828 320.029C429.554 317.851 429.957 315.432 429.957 312.771C429.957 310.11 429.554 307.61 428.828 305.433C428.022 303.255 426.893 301.562 425.28 300.272C423.748 298.901 421.812 298.256 419.474 298.256C417.055 298.256 415.119 298.901 413.507 300.272C411.894 301.562 410.765 303.255 409.958 305.433C409.233 307.61 408.829 310.11 408.829 312.771C408.829 315.432 409.233 317.851 409.958 320.029C410.765 322.206 411.894 323.98 413.507 325.27C415.119 326.56 417.055 327.206 419.474 327.206Z" fill="#C2C2C2"/>
<path d="M476.373 316.158V290.676H486.695V334.625H476.695V326.802H476.211C475.244 329.302 473.55 331.318 471.292 332.85C469.034 334.383 466.293 335.189 462.986 335.189C460.083 335.189 457.583 334.544 455.326 333.254C453.148 331.963 451.455 330.109 450.165 327.609C448.955 325.19 448.31 322.125 448.31 318.658V290.676H458.712V317.045C458.712 319.867 459.438 322.045 460.97 323.658C462.503 325.351 464.519 326.157 467.018 326.157C468.551 326.157 470.002 325.754 471.454 325.028C472.824 324.303 474.034 323.174 474.921 321.722C475.889 320.19 476.373 318.335 476.373 316.158Z" fill="#C2C2C2"/>
<path d="M505.561 308.82V334.624H495.159V290.676H505.077V298.095H505.561C506.61 295.675 508.222 293.659 510.48 292.208C512.658 290.756 515.399 290.031 518.706 290.031C521.77 290.031 524.35 290.676 526.608 292.047C528.947 293.337 530.64 295.191 531.931 297.691C533.14 300.111 533.785 303.094 533.785 306.642V334.624H523.383V308.255C523.383 305.271 522.657 303.014 521.125 301.32C519.593 299.627 517.496 298.82 514.835 298.82C513.061 298.82 511.448 299.223 509.996 300.03C508.626 300.836 507.497 301.965 506.69 303.417C505.964 304.949 505.561 306.723 505.561 308.82Z" fill="#C2C2C2"/>
<path d="M558.641 335.431C555.254 335.431 552.11 334.544 549.368 332.77C546.707 330.996 544.529 328.415 542.917 325.028C541.384 321.642 540.578 317.529 540.578 312.69C540.578 307.771 541.384 303.659 542.997 300.272C544.61 296.966 546.787 294.385 549.529 292.692C552.271 290.918 555.335 290.031 558.722 290.031C561.302 290.031 563.399 290.514 565.093 291.402C566.705 292.208 568.076 293.256 569.044 294.466C570.012 295.675 570.737 296.804 571.302 297.933H571.705V275.999H582.108V334.625H571.947V327.689H571.302C570.737 328.738 569.931 329.867 568.963 331.076C567.915 332.286 566.625 333.334 564.931 334.141C563.318 334.947 561.222 335.431 558.641 335.431ZM561.544 326.883C563.802 326.883 565.657 326.319 567.189 325.109C568.721 323.899 569.931 322.206 570.737 320.109C571.544 317.932 571.947 315.513 571.947 312.61C571.947 309.787 571.544 307.288 570.737 305.191C569.931 303.094 568.802 301.482 567.189 300.353C565.657 299.143 563.802 298.578 561.544 298.578C559.286 298.578 557.351 299.143 555.819 300.353C554.206 301.562 553.077 303.256 552.271 305.352C551.545 307.449 551.142 309.868 551.142 312.61C551.142 315.352 551.545 317.851 552.271 319.948C553.077 322.125 554.287 323.819 555.819 325.028C557.351 326.238 559.286 326.883 561.544 326.883Z" fill="#C2C2C2"/>
<path d="M248.912 368.159H259.557V426.784H248.912V368.159Z" fill="#C2C2C2"/>
<path d="M269.734 426.784V382.836H279.652V390.254H280.136C281.104 387.755 282.555 385.819 284.733 384.368C286.829 382.916 289.329 382.19 292.313 382.19C295.297 382.19 297.796 382.916 299.812 384.368C301.909 385.819 303.361 387.755 304.167 390.254H304.651C305.618 387.835 307.231 385.9 309.57 384.448C311.908 382.916 314.65 382.19 317.876 382.19C321.908 382.19 325.214 383.481 327.794 386.061C330.294 388.642 331.584 392.351 331.584 397.27V426.784H321.182V398.883C321.182 396.141 320.456 394.125 319.005 392.835C317.553 391.625 315.779 390.98 313.682 390.98C311.183 390.98 309.247 391.706 307.876 393.319C306.425 394.851 305.699 396.867 305.699 399.367V426.784H295.538V398.399C295.538 396.141 294.893 394.367 293.522 392.996C292.152 391.625 290.377 390.98 288.2 390.98C286.668 390.98 285.297 391.303 284.088 392.109C282.878 392.835 281.91 393.883 281.185 395.254C280.459 396.625 280.136 398.238 280.136 400.012V426.784H269.734Z" fill="#C2C2C2"/>
<path d="M352.496 427.671C349.673 427.671 347.174 427.188 344.996 426.139C342.738 425.172 340.964 423.72 339.674 421.704C338.384 419.769 337.739 417.349 337.739 414.446C337.739 411.947 338.223 409.931 339.19 408.318C340.077 406.624 341.287 405.334 342.9 404.366C344.513 403.399 346.287 402.673 348.303 402.189C350.238 401.705 352.335 401.302 354.512 401.06C357.012 400.818 359.108 400.576 360.721 400.334C362.334 400.093 363.544 399.77 364.269 399.286C364.995 398.802 365.318 398.077 365.318 397.109V396.948C365.318 394.77 364.753 393.157 363.463 391.948C362.173 390.738 360.318 390.174 357.899 390.174C355.399 390.174 353.383 390.738 351.851 391.787C350.399 392.916 349.432 394.206 348.867 395.738L339.19 394.367C339.997 391.706 341.206 389.448 342.98 387.674C344.754 385.819 346.932 384.529 349.432 383.561C352.012 382.674 354.754 382.19 357.818 382.19C359.995 382.19 362.092 382.513 364.189 382.997C366.285 383.481 368.221 384.287 369.914 385.416C371.688 386.545 373.059 388.077 374.107 390.013C375.156 392.029 375.72 394.448 375.72 397.351V426.784H365.721V420.736H365.398C364.753 421.946 363.866 423.075 362.737 424.204C361.608 425.252 360.237 426.059 358.463 426.704C356.77 427.349 354.754 427.671 352.496 427.671ZM355.157 420.091C357.254 420.091 359.108 419.607 360.641 418.801C362.092 417.995 363.302 416.866 364.108 415.495C364.995 414.124 365.398 412.592 365.398 410.979V405.818C365.076 406.06 364.511 406.302 363.705 406.544C362.979 406.786 362.092 407.028 361.124 407.189C360.157 407.35 359.27 407.511 358.302 407.592C357.334 407.753 356.528 407.915 355.883 407.995C354.351 408.157 352.98 408.56 351.689 408.963C350.48 409.447 349.512 410.173 348.867 410.979C348.141 411.866 347.738 412.914 347.738 414.285C347.738 416.14 348.464 417.591 349.835 418.559C351.286 419.607 353.06 420.091 355.157 420.091Z" fill="#C2C2C2"/>
<path d="M404.422 444.041C400.712 444.041 397.486 443.557 394.825 442.509C392.164 441.541 390.068 440.251 388.374 438.558C386.761 436.864 385.632 435.09 385.068 433.074L394.342 430.816C394.745 431.623 395.39 432.429 396.196 433.236C397.003 434.042 398.051 434.768 399.422 435.332C400.793 435.897 402.567 436.139 404.583 436.139C407.566 436.139 409.986 435.493 411.921 434.042C413.856 432.671 414.824 430.333 414.824 427.188V418.882H414.26C413.776 419.93 412.969 421.059 411.921 422.188C410.953 423.317 409.582 424.285 407.889 425.01C406.276 425.736 404.18 426.139 401.599 426.139C398.293 426.139 395.229 425.333 392.487 423.801C389.745 422.188 387.568 419.769 385.955 416.624C384.342 413.398 383.536 409.447 383.536 404.608C383.536 399.851 384.342 395.738 385.955 392.432C387.568 389.045 389.745 386.545 392.487 384.852C395.229 383.077 398.293 382.19 401.68 382.19C404.26 382.19 406.357 382.674 408.05 383.561C409.744 384.368 411.034 385.416 412.002 386.626C413.05 387.835 413.776 388.964 414.26 390.093H414.905V382.836H425.065V427.51C425.065 431.22 424.178 434.284 422.404 436.703C420.63 439.122 418.13 440.977 415.066 442.187C411.921 443.396 408.373 444.041 404.422 444.041ZM404.502 417.995C406.76 417.995 408.615 417.511 410.147 416.382C411.679 415.333 412.889 413.801 413.695 411.785C414.502 409.769 414.905 407.431 414.905 404.608C414.905 401.786 414.502 399.367 413.695 397.351C412.889 395.254 411.76 393.641 410.147 392.432C408.615 391.303 406.76 390.738 404.502 390.738C402.244 390.738 400.309 391.303 398.777 392.512C397.164 393.722 396.035 395.415 395.229 397.512C394.503 399.528 394.1 401.947 394.1 404.608C394.1 407.269 394.503 409.608 395.229 411.624C396.035 413.64 397.245 415.253 398.777 416.382C400.309 417.43 402.244 417.995 404.502 417.995Z" fill="#C2C2C2"/>
<path d="M453.965 427.671C449.529 427.671 445.739 426.704 442.514 424.849C439.288 423.075 436.869 420.414 435.176 417.027C433.401 413.64 432.595 409.689 432.595 405.012C432.595 400.496 433.401 396.544 435.176 393.157C436.869 389.69 439.288 387.029 442.433 385.093C445.497 383.158 449.207 382.19 453.4 382.19C456.061 382.19 458.642 382.674 461.061 383.561C463.48 384.368 465.657 385.739 467.512 387.513C469.367 389.367 470.818 391.706 471.867 394.448C472.915 397.27 473.479 400.576 473.479 404.447V407.592H437.433V400.657H463.561C463.561 398.641 463.077 396.867 462.271 395.335C461.383 393.803 460.255 392.512 458.722 391.625C457.271 390.738 455.497 390.335 453.561 390.335C451.384 390.335 449.529 390.819 447.917 391.867C446.304 392.835 445.094 394.206 444.207 395.819C443.32 397.512 442.836 399.286 442.836 401.302V407.35C442.836 409.931 443.32 412.108 444.288 413.963C445.175 415.737 446.465 417.188 448.159 418.156C449.852 419.124 451.787 419.607 454.045 419.607C455.577 419.607 456.948 419.365 458.158 418.962C459.367 418.478 460.416 417.833 461.383 417.027C462.271 416.14 462.916 415.172 463.399 413.882L473.076 415.011C472.431 417.511 471.302 419.769 469.609 421.704C467.835 423.559 465.657 425.01 462.996 426.059C460.416 427.107 457.351 427.671 453.965 427.671Z" fill="#C2C2C2"/>
<path fill-rule="evenodd" clip-rule="evenodd" d="M240.304 232.157L8.14769 0.000837464L-0.00169966 -0.00184038L0.000975484 8.14755L232.157 240.304L240.304 232.157Z" fill="#C2C2C2"/>
<path fill-rule="evenodd" clip-rule="evenodd" d="M240.304 487.842L8.14769 719.998L-0.00169966 720L0.000975484 711.851L232.157 479.695L240.304 487.842Z" fill="#C2C2C2"/>
<path fill-rule="evenodd" clip-rule="evenodd" d="M479.696 232.157L711.852 0.00083747L720.001 -0.00184003L719.999 8.14755L487.843 240.304L479.696 232.157Z" fill="#C2C2C2"/>
<path fill-rule="evenodd" clip-rule="evenodd" d="M479.696 487.842L711.852 719.998L720.001 720L719.999 711.851L487.843 479.695L479.696 487.842Z" fill="#C2C2C2"/>
</svg>
